<svg xmlns="http://www.w3.org/2000/svg" viewBox="0 0 64 64" width="64" height="64">
  <defs>
    <linearGradient id="shield" x1="0" y1="0" x2="0" y2="1">
      <stop offset="0%" stop-color="#FFBF00"/>
      <stop offset="100%" stop-color="#CD7F32"/>
    </linearGradient>
    <linearGradient id="axe-head" x1="0" y1="0" x2="1" y2="1">
      <stop offset="0%" stop-color="#E8E0D4"/>
      <stop offset="100%" stop-color="#8B7355"/>
    </linearGradient>
  </defs>
  <!-- Shield -->
  <path d="M32 4 L56 16 V36 C56 50 32 60 32 60 C32 60 8 50 8 36 V16 Z"
        fill="url(#shield)" stroke="#8B7355" stroke-width="2"/>
  <!-- Shield divider (coat of arms style) -->
  <line x1="32" y1="14" x2="32" y2="56" stroke="#8B7355" stroke-width="1" opacity="0.4"/>
  <line x1="12" y1="30" x2="52" y2="30" stroke="#8B7355" stroke-width="1" opacity="0.4"/>
  <!-- Axe handle -->
  <line x1="32" y1="18" x2="32" y2="50" stroke="#5C3A1E" stroke-width="3" stroke-linecap="round"/>
  <!-- Axe head (double-sided labrys) -->
  <path d="M22 22 Q22 18 26 16 L32 20 L38 16 Q42 18 42 22 L38 24 L32 20 L26 24 Z"
        fill="url(#axe-head)" stroke="#1A1A2E" stroke-width="0.8"/>
  <!-- Axe head lower blade -->
  <path d="M26 24 Q22 26 22 30 L26 28 L32 32 L38 28 L42 30 Q42 26 38 24 L32 28 Z"
        fill="url(#axe-head)" stroke="#1A1A2E" stroke-width="0.8" opacity="0.85"/>
</svg>
